<?xml version="1.0" standalone="no"?>
<!DOCTYPE svg PUBLIC "-//W3C//DTD SVG 20010904//EN"
 "http://www.w3.org/TR/2001/REC-SVG-20010904/DTD/svg10.dtd">
<svg version="1.0" xmlns="http://www.w3.org/2000/svg"
 width="410.000000pt" height="410.000000pt" viewBox="0 0 410.000000 410.000000"
 preserveAspectRatio="xMidYMid meet">
<metadata>
Created by potrace 1.14, written by Peter Selinger 2001-2017
</metadata>
<g transform="translate(0.000000,410.000000) scale(0.100000,-0.100000)"
fill="#000000" stroke="none">
<path d="M889 2627 c0 -441 -2 -815 -4 -832 -11 -88 -18 -119 -38 -168 -55
-134 -156 -190 -329 -181 -46 2 -109 6 -140 8 -101 8 -118 -20 -133 -220 -11
-145 -11 -147 5 -150 8 -1 40 -7 70 -13 121 -25 304 -32 427 -18 132 15 298
95 396 191 116 114 167 221 224 471 3 17 8 409 10 872 l3 842 -245 0 -245 0
-1 -802z"/>
<path d="M1850 2249 l0 -1179 243 2 242 3 1 497 c1 273 4 503 6 510 4 10 31
12 122 7 110 -5 117 -7 153 -36 21 -16 180 -228 354 -471 173 -243 323 -450
334 -462 38 -42 103 -51 357 -48 l235 3 -93 132 c-51 73 -117 168 -147 210
-29 43 -104 149 -165 236 -62 87 -116 167 -122 177 -5 10 -16 24 -23 32 -7 7
-33 42 -57 78 -167 249 -238 333 -310 365 l-39 18 37 27 c44 33 83 74 148 156
58 73 432 555 488 628 21 28 77 101 124 161 47 61 89 115 94 122 7 8 -50 11
-234 9 -134 -2 -257 -6 -275 -11 -55 -13 -103 -65 -293 -319 -102 -136 -241
-321 -309 -412 -122 -164 -167 -210 -212 -220 -13 -3 -57 -6 -96 -8 -60 -2
-73 1 -74 13 0 9 -1 229 -1 488 l0 473 -244 -1 -244 -1 0 -1179z"/>
<path d="M200 878 c-1 -36 -1 -240 -1 -270 l1 -28 1830 0 1830 0 0 160 0 160
-1830 0 -1830 0 0 -22z"/>
</g>
</svg>
