<?xml version="1.0" encoding="utf-8"?>
<svg viewBox="0 0 1980 300" xmlns="http://www.w3.org/2000/svg">
  <path d="M 0 115 L 55 108 C 110 101 220 87 330 107 C 440 127 550 181 660 199.7 C 770 218.3 880 201.7 990 182.5 C 1100 163.3 1210 141.7 1320 118.7 C 1430 95.7 1540 71.3 1650 65.3 C 1760 59.3 1870 71.7 1925 77.8 L 1980 84 L 1980 0 L 1925 0 C 1870 0 1760 0 1650 0 C 1540 0 1430 0 1320 0 C 1210 0 1100 0 990 0 C 880 0 770 0 660 0 C 550 0 440 0 330 0 C 220 0 110 0 55 0 L 0 0 L 0 115 Z" stroke-linecap="round" stroke-linejoin="miter"/>
  <path d="M 1980 84 L 1925 77.8 C 1870 71.7 1760 59.3 1650 65.3 C 1540 71.3 1430 95.7 1320 118.7 C 1210 141.7 1100 163.3 990 182.5 C 880 201.7 770 218.3 660 199.7 C 550 181 440 127 330 107 C 220 87 110 101 55 108 L 0 115 C 3.025 113.928 6.118 112.868 9.277 111.819 L 55 106 C 110 99 220 85 330 105 C 440 125 550 179 660 197.7 C 770 216.3 880 199.7 990 180.5 C 1100 161.3 1210 139.7 1320 116.7 C 1430 93.7 1540 69.3 1650 63.3 C 1760 57.3 1870 69.7 1925 75.8 L 1977.173 81.681 C 1978.487 82.457 1979.433 83.23 1980 84 Z" style="stroke: rgb(244, 143, 177); stroke-width: 5px; paint-order: stroke; fill: none; fill-rule: evenodd; stroke-miterlimit: 1; stroke-linejoin: round; stroke-linecap: round;"/>
</svg>